<?xml version="1.0" encoding="UTF-8"?>
<mxfile host="app.diagrams.net" modified="2020-09-07T15:19:05.296Z" agent="5.0 (X11)" etag="0bUdtszKR0ZXFzAGCNLS" version="13.6.6" type="github">
  <diagram id="YwVPcnQrtgQc1rpSdtJS" name="Page-1">
    <mxGraphModel dx="1382" dy="951" grid="1" gridSize="10" guides="1" tooltips="1" connect="1" arrows="1" fold="1" page="1" pageScale="1" pageWidth="827" pageHeight="1169" math="0" shadow="0">
      <root>
        <mxCell id="0" />
        <mxCell id="1" parent="0" />
        <mxCell id="hwIMmI3QBjWFJ3wTzXhl-31" value="" style="rounded=0;whiteSpace=wrap;html=1;strokeWidth=2;fontSize=16;strokeColor=#A3A3A3;dashed=1;fillColor=none;" parent="1" vertex="1">
          <mxGeometry x="80" y="200" width="730" height="220" as="geometry" />
        </mxCell>
        <UserObject label="&lt;font style=&quot;font-size: 16px;&quot; color=&quot;#1303FF&quot;&gt;&lt;u style=&quot;font-size: 16px;&quot;&gt;Fichiers consolidés des données essentielles de la commande publique&lt;/u&gt;&lt;/font&gt;" link="https://www.data.gouv.fr/fr/datasets/5cd57bf68b4c4179299eb0e9/" id="hwIMmI3QBjWFJ3wTzXhl-1">
          <mxCell style="rounded=0;whiteSpace=wrap;html=1;verticalAlign=top;strokeWidth=2;strokeColor=#7EA6E0;fontSize=16;" parent="1" vertex="1">
            <mxGeometry x="470" y="260" width="320" height="120" as="geometry" />
          </mxCell>
        </UserObject>
        <mxCell id="hwIMmI3QBjWFJ3wTzXhl-15" style="edgeStyle=orthogonalEdgeStyle;rounded=0;orthogonalLoop=1;jettySize=auto;html=1;fontSize=16;entryX=0.5;entryY=1;entryDx=0;entryDy=0;exitX=1;exitY=0.5;exitDx=0;exitDy=0;strokeWidth=2;" parent="1" source="hwIMmI3QBjWFJ3wTzXhl-2" target="hwIMmI3QBjWFJ3wTzXhl-1" edge="1">
          <mxGeometry relative="1" as="geometry">
            <mxPoint x="500" y="320" as="targetPoint" />
          </mxGeometry>
        </mxCell>
        <UserObject label="&lt;div style=&quot;font-size: 16px;&quot;&gt;&lt;font style=&quot;font-size: 16px;&quot; color=&quot;#1303FF&quot;&gt;&lt;u style=&quot;font-size: 16px;&quot;&gt;CircleCI&lt;/u&gt;&lt;/font&gt;&lt;/div&gt;" link="https://circleci.com/gh/139bercy/decp-rama" id="hwIMmI3QBjWFJ3wTzXhl-2">
          <mxCell style="rounded=0;whiteSpace=wrap;html=1;fontSize=16;" parent="1" vertex="1">
            <mxGeometry x="400" y="470" width="140" height="50" as="geometry" />
          </mxCell>
        </UserObject>
        <mxCell id="hwIMmI3QBjWFJ3wTzXhl-7" value="" style="rounded=0;whiteSpace=wrap;html=1;strokeWidth=2;strokeColor=#7EA6E0;fontSize=16;" parent="1" vertex="1">
          <mxGeometry x="99" y="241" width="311" height="119" as="geometry" />
        </mxCell>
        <mxCell id="hwIMmI3QBjWFJ3wTzXhl-10" value="" style="rounded=0;whiteSpace=wrap;html=1;strokeWidth=2;strokeColor=#7EA6E0;fontSize=16;" parent="1" vertex="1">
          <mxGeometry x="109" y="251" width="321" height="119" as="geometry" />
        </mxCell>
        <mxCell id="hwIMmI3QBjWFJ3wTzXhl-13" style="edgeStyle=orthogonalEdgeStyle;rounded=0;orthogonalLoop=1;jettySize=auto;html=1;entryX=0;entryY=0.5;entryDx=0;entryDy=0;fontSize=16;exitX=0.5;exitY=1;exitDx=0;exitDy=0;strokeWidth=2;" parent="1" source="hwIMmI3QBjWFJ3wTzXhl-11" target="hwIMmI3QBjWFJ3wTzXhl-2" edge="1">
          <mxGeometry relative="1" as="geometry">
            <mxPoint x="280" y="410" as="sourcePoint" />
            <Array as="points">
              <mxPoint x="280" y="495" />
            </Array>
          </mxGeometry>
        </mxCell>
        <mxCell id="hwIMmI3QBjWFJ3wTzXhl-11" value="Jeux de données source (AIFE, PES Marché, profils d&#39;acheteur)" style="rounded=0;whiteSpace=wrap;html=1;verticalAlign=top;strokeWidth=2;strokeColor=#7EA6E0;fontSize=16;" parent="1" vertex="1">
          <mxGeometry x="120" y="260" width="320" height="120" as="geometry" />
        </mxCell>
        <mxCell id="hwIMmI3QBjWFJ3wTzXhl-19" value="&lt;font style=&quot;font-size: 16px;&quot;&gt;JSON&lt;/font&gt;" style="shape=process;whiteSpace=wrap;html=1;backgroundOutline=1;fontSize=16;" parent="1" vertex="1">
          <mxGeometry x="180" y="330" width="70" height="30" as="geometry" />
        </mxCell>
        <mxCell id="hwIMmI3QBjWFJ3wTzXhl-20" value="&lt;font style=&quot;font-size: 16px;&quot;&gt;XML&lt;/font&gt;" style="shape=process;whiteSpace=wrap;html=1;backgroundOutline=1;fontSize=16;" parent="1" vertex="1">
          <mxGeometry x="270" y="330" width="70" height="30" as="geometry" />
        </mxCell>
        <mxCell id="hwIMmI3QBjWFJ3wTzXhl-21" value="&lt;font style=&quot;font-size: 16px;&quot;&gt;JSON&lt;/font&gt;" style="shape=process;whiteSpace=wrap;html=1;backgroundOutline=1;fontSize=16;" parent="1" vertex="1">
          <mxGeometry x="509" y="330" width="70" height="30" as="geometry" />
        </mxCell>
        <mxCell id="hwIMmI3QBjWFJ3wTzXhl-22" value="&lt;font style=&quot;font-size: 16px;&quot;&gt;XML&lt;/font&gt;" style="shape=process;whiteSpace=wrap;html=1;backgroundOutline=1;fontSize=16;" parent="1" vertex="1">
          <mxGeometry x="599" y="330" width="70" height="30" as="geometry" />
        </mxCell>
        <mxCell id="hwIMmI3QBjWFJ3wTzXhl-23" value="&lt;font style=&quot;font-size: 16px;&quot;&gt;OCDS&lt;/font&gt;" style="shape=process;whiteSpace=wrap;html=1;backgroundOutline=1;fontSize=16;" parent="1" vertex="1">
          <mxGeometry x="685" y="330" width="70" height="30" as="geometry" />
        </mxCell>
        <mxCell id="hwIMmI3QBjWFJ3wTzXhl-25" style="edgeStyle=orthogonalEdgeStyle;rounded=0;orthogonalLoop=1;jettySize=auto;html=1;entryX=0;entryY=0.5;entryDx=0;entryDy=0;fontSize=16;strokeWidth=2;" parent="1" source="hwIMmI3QBjWFJ3wTzXhl-24" target="hwIMmI3QBjWFJ3wTzXhl-2" edge="1">
          <mxGeometry relative="1" as="geometry" />
        </mxCell>
        <UserObject label="&lt;font style=&quot;font-size: 16px;&quot; color=&quot;#1303FF&quot;&gt;&lt;u style=&quot;font-size: 16px;&quot;&gt;data.grandlyon.fr&lt;/u&gt;&lt;/font&gt;" link="https://data.grandlyon.com/jeux-de-donnees/marche-public-metropole-lyon/info" id="hwIMmI3QBjWFJ3wTzXhl-24">
          <mxCell style="rounded=0;whiteSpace=wrap;html=1;fontSize=16;" parent="1" vertex="1">
            <mxGeometry x="30" y="460" width="180" height="70" as="geometry" />
          </mxCell>
        </UserObject>
        <mxCell id="hwIMmI3QBjWFJ3wTzXhl-26" value="a.1" style="ellipse;whiteSpace=wrap;html=1;aspect=fixed;fontSize=16;fillColor=#dae8fc;strokeColor=#6c8ebf;" parent="1" vertex="1">
          <mxGeometry x="262.5" y="477" width="35" height="35" as="geometry" />
        </mxCell>
        <mxCell id="hwIMmI3QBjWFJ3wTzXhl-28" value="b.8" style="ellipse;whiteSpace=wrap;html=1;aspect=fixed;fontSize=16;fillColor=#dae8fc;strokeColor=#6c8ebf;" parent="1" vertex="1">
          <mxGeometry x="572" y="477.5" width="35" height="35" as="geometry" />
        </mxCell>
        <mxCell id="hwIMmI3QBjWFJ3wTzXhl-5" value="data.gouv.fr" style="text;html=1;strokeColor=none;align=center;verticalAlign=middle;whiteSpace=wrap;rounded=0;fontSize=16;fillColor=#ffffff;" parent="1" vertex="1">
          <mxGeometry x="364" y="190" width="110" height="20" as="geometry" />
        </mxCell>
        <mxCell id="hwIMmI3QBjWFJ3wTzXhl-35" style="edgeStyle=orthogonalEdgeStyle;rounded=0;orthogonalLoop=1;jettySize=auto;html=1;exitX=0.5;exitY=0;exitDx=0;exitDy=0;entryX=0.5;entryY=1;entryDx=0;entryDy=0;strokeWidth=2;fontSize=16;" parent="1" source="hwIMmI3QBjWFJ3wTzXhl-34" target="hwIMmI3QBjWFJ3wTzXhl-2" edge="1">
          <mxGeometry relative="1" as="geometry" />
        </mxCell>
        <UserObject label="&lt;font style=&quot;font-size: 16px;&quot; color=&quot;#1303FF&quot;&gt;&lt;u style=&quot;font-size: 16px;&quot;&gt;Github&lt;/u&gt;&lt;/font&gt;" link="https://github.com/139bercy/decp-rama/" id="hwIMmI3QBjWFJ3wTzXhl-34">
          <mxCell style="rounded=0;whiteSpace=wrap;html=1;fontSize=16;" parent="1" vertex="1">
            <mxGeometry x="400" y="570" width="140" height="50" as="geometry" />
          </mxCell>
        </UserObject>
        <mxCell id="hwIMmI3QBjWFJ3wTzXhl-36" value="code" style="text;html=1;strokeColor=none;align=center;verticalAlign=middle;whiteSpace=wrap;rounded=0;dashed=1;fontSize=16;fillColor=#ffffff;" parent="1" vertex="1">
          <mxGeometry x="449" y="540" width="40" height="20" as="geometry" />
        </mxCell>
        <mxCell id="RhvO9nnodoMTBFxERSfM-1" value="x.0" style="ellipse;whiteSpace=wrap;html=1;aspect=fixed;fontSize=16;fillColor=#dae8fc;strokeColor=#6c8ebf;" parent="1" vertex="1">
          <mxGeometry x="30" y="640" width="35" height="35" as="geometry" />
        </mxCell>
        <mxCell id="RhvO9nnodoMTBFxERSfM-2" value="&lt;font style=&quot;font-size: 14px&quot;&gt;numéro de l&#39;instruction correspondante, voir ci-dessous&lt;/font&gt;" style="text;html=1;strokeColor=none;align=left;verticalAlign=middle;whiteSpace=wrap;rounded=0;dashed=1;fontSize=16;fillColor=#ffffff;fontStyle=2" parent="1" vertex="1">
          <mxGeometry x="70" y="647.5" width="370" height="20" as="geometry" />
        </mxCell>
      </root>
    </mxGraphModel>
  </diagram>
</mxfile>
